# File created by Blade
# Date/Time:  Fri Jan 16 19:41:12 2015
# Frame Rate: 120.000 fps
#------------------------------------------------------
:FULLY-SPECIFIED
:DEGREES
437
root 18.583492 35.469469 -21.165482 12.897594 10.813256 -0.503467
Spine -24.753821 -19.087136 -0.454991
Head 15.408507 7.513102 14.118264
LeftShoulder -5.550253 3.254384 -4.499727
LeftArm -107.249808 48.730123 -205.363410
LeftForeArm 71.201310 -0.000000 125.689427
LeftHand 10.672114 -0.000000 18.588957
LeftHandThumb1 -26.253704 0.000000 33.147579
RightShoulder -18.640502 29.819159 -40.115973
RightArm 151.897769 54.216640 116.668611
RightForeArm 4.841572 0.000000 149.894332
RightHand 5.253070 -0.000000 -23.135240
RightHandThumb1 -24.326973 -0.000000 -32.862282
LeftUpLeg -2.861269 0.030120 2.202085
LeftLeg -7.883375 -0.000000 0.000000
LeftFoot -19.627372 26.073351 -13.881550
LeftToeBase 24.472590 -0.000000 -0.000000
RightUpLeg -1.238010 -14.718681 0.506984
RightLeg -4.357571 -0.000000 0.000000
RightFoot -24.174325 -24.445692 22.449128
RightToeBase 22.147864 -0.000000 -0.000000
438
root 18.586929 35.468588 -21.163018 12.898779 10.739332 -0.508000
Spine -24.760523 -19.003102 -0.460834
Head 15.341087 7.489130 14.055809
LeftShoulder -5.541805 3.228883 -4.532316
LeftArm -107.279175 48.718450 -205.425766
LeftForeArm 71.197209 -0.000000 125.689283
LeftHand 10.822126 0.000000 18.677133
LeftHandThumb1 -26.253704 0.000000 33.147579
RightShoulder -18.588118 29.806783 -40.087265
RightArm 152.017363 54.199228 116.826326
RightForeArm 4.944401 -0.000000 149.898814
RightHand 5.219831 -0.000000 -23.165856
RightHandThumb1 -24.326973 -0.000000 -32.862282
LeftUpLeg -2.832987 0.068723 2.190531
LeftLeg -7.908155 -0.000000 0.000000
LeftFoot -19.630359 26.095107 -13.893710
LeftToeBase 24.439629 -0.000000 -0.000000
RightUpLeg -1.239200 -14.715582 0.495567
RightLeg -4.366130 -0.000000 0.000000
RightFoot -24.145177 -24.388437 22.424226
RightToeBase 22.183755 -0.000000 -0.000000
439
root 18.590249 35.468170 -21.161446 12.902614 10.680986 -0.511317
Spine -24.767297 -18.921103 -0.470887
Head 15.268894 7.456224 13.997310
LeftShoulder -5.500971 3.241698 -4.553663
LeftArm -107.305915 48.724713 -205.498049
LeftForeArm 71.232992 -0.000000 125.672471
LeftHand 11.003213 -0.000000 18.770866
LeftHandThumb1 -26.253704 0.000000 33.147579
RightShoulder -18.565869 29.831136 -40.073897
RightArm 152.079118 54.147967 116.960396
RightForeArm 5.007547 0.000000 149.890096
RightHand 5.176102 -0.000000 -23.127095
RightHandThumb1 -24.326973 -0.000000 -32.862282
LeftUpLeg -2.822640 0.102713 2.179587
LeftLeg -7.909813 -0.000000 0.000000
LeftFoot -19.649805 26.101321 -13.904509
LeftToeBase 24.450939 -0.000000 -0.000000
RightUpLeg -1.243446 -14.715940 0.486818
RightLeg -4.376870 -0.000000 0.000000
RightFoot -24.127100 -24.345857 22.427928
RightToeBase 22.190055 -0.000000 -0.000000
440
root 18.591687 35.468147 -21.161412 12.911321 10.653817 -0.508182
Spine -24.767673 -18.879794 -0.486364
Head 15.193227 7.435671 13.961670
LeftShoulder -5.461040 3.254368 -4.568960
LeftArm -107.292691 48.715881 -205.523538
LeftForeArm 71.327009 -0.000000 125.642001
LeftHand 11.135287 -0.000000 18.892406
LeftHandThumb1 -26.253704 0.000000 33.147579
RightShoulder -18.549505 29.859332 -40.042866
RightArm 152.163364 54.051873 117.122296
RightForeArm 5.069485 -0.000000 149.875738
RightHand 5.125467 -0.000000 -23.116925
RightHandThumb1 -24.326973 -0.000000 -32.862282
LeftUpLeg -2.826462 0.082518 2.174798
LeftLeg -7.907669 -0.000000 0.000000
LeftFoot -19.661323 26.142251 -13.896735
LeftToeBase 24.481097 -0.000000 -0.000000
RightUpLeg -1.245452 -14.745867 0.482204
RightLeg -4.399285 -0.000000 0.000000
RightFoot -24.093139 -24.318833 22.392083
RightToeBase 22.165290 -0.000000 -0.000000
441
root 18.595322 35.468093 -21.159404 12.918137 10.591895 -0.515144
Spine -24.778638 -18.798131 -0.485376
Head 15.129306 7.411696 13.903011
LeftShoulder -5.428546 3.288325 -4.582432
LeftArm -107.285251 48.700394 -205.554781
LeftForeArm 71.468664 -0.000000 125.604144
LeftHand 11.308185 -0.000000 19.020133
LeftHandThumb1 -26.253704 0.000000 33.147579
RightShoulder -18.540328 29.861590 -40.018414
RightArm 152.275576 53.943515 117.306898
RightForeArm 5.111121 -0.000000 149.860586
RightHand 5.056451 -0.000000 -23.106442
RightHandThumb1 -24.326973 -0.000000 -32.862282
LeftUpLeg -2.810069 0.111386 2.165721
LeftLeg -7.926295 -0.000000 0.000000
LeftFoot -19.662333 26.177560 -13.895078
LeftToeBase 24.448799 -0.000000 -0.000000
RightUpLeg -1.255164 -14.725297 0.473266
RightLeg -4.404249 -0.000000 0.000000
RightFoot -24.078974 -24.328056 22.401503
RightToeBase 22.124682 -0.000000 -0.000000
442
root 18.598604 35.467863 -21.157043 12.928080 10.536552 -0.522366
Spine -24.791021 -18.705758 -0.486343
Head 15.062432 7.371629 13.839298
LeftShoulder -5.381449 3.339632 -4.576730
LeftArm -107.252895 48.685151 -205.545465
LeftForeArm 71.613794 -0.000000 125.539988
LeftHand 11.453853 -0.000000 19.179827
LeftHandThumb1 -26.253704 0.000000 33.147579
RightShoulder -18.547082 29.874717 -40.023180
RightArm 152.355775 53.907664 117.453814
RightForeArm 5.102123 0.000000 149.825519
RightHand 5.031370 0.000000 -23.263026
RightHandThumb1 -24.326973 -0.000000 -32.862282
LeftUpLeg -2.801007 0.116545 2.162999
LeftLeg -7.937031 -0.000000 0.000000
LeftFoot -19.679432 26.208309 -13.910169
LeftToeBase 24.444027 -0.000000 -0.000000
RightUpLeg -1.267906 -14.710830 0.469767
RightLeg -4.406571 -0.000000 0.000000
RightFoot -24.062012 -24.288495 22.401888
RightToeBase 22.128214 -0.000000 -0.000000
443
root 18.601128 35.467599 -21.155426 12.932587 10.495702 -0.531853
Spine -24.792699 -18.617780 -0.492448
Head 15.000045 7.333169 13.796443
LeftShoulder -5.328370 3.399637 -4.554082
LeftArm -107.206791 48.678111 -205.524439
LeftForeArm 71.785031 -0.000000 125.453581
LeftHand 11.598590 -0.000000 19.377113
LeftHandThumb1 -26.253704 0.000000 33.147579
RightShoulder -18.567722 29.861270 -40.016435
RightArm 152.460225 53.884759 117.607502
RightForeArm 5.079283 -0.000000 149.793514
RightHand 5.022460 -0.000000 -23.388221
RightHandThumb1 -24.326973 -0.000000 -32.862282
LeftUpLeg -2.793159 0.128469 2.162663
LeftLeg -7.944747 -0.000000 0.000000
LeftFoot -19.701168 26.226362 -13.929022
LeftToeBase 24.442085 -0.000000 -0.000000
RightUpLeg -1.275561 -14.697534 0.469845
RightLeg -4.408648 -0.000000 0.000000
RightFoot -24.051751 -24.270617 22.403874
RightToeBase 22.136733 -0.000000 -0.000000
444
root 18.603503 35.467360 -21.153365 12.935245 10.462141 -0.537834
Spine -24.796373 -18.505491 -0.507120
Head 14.951042 7.274911 13.738931
LeftShoulder -5.261654 3.497678 -4.523006
LeftArm -107.202412 48.696390 -205.513932
LeftForeArm 71.948964 -0.000000 125.392146
LeftHand 11.738955 -0.000000 19.570143
LeftHandThumb1 -26.253704 0.000000 33.147579
RightShoulder -18.601650 29.791956 -40.003153
RightArm 152.579601 53.872893 117.725650
RightForeArm 5.111088 -0.000000 149.770627
RightHand 5.036990 -0.000000 -23.547602
RightHandThumb1 -24.326973 -0.000000 -32.862282
LeftUpLeg -2.780214 0.131084 2.161126
LeftLeg -7.956676 -0.000000 0.000000
LeftFoot -19.708830 26.252223 -13.949400
LeftToeBase 24.400495 -0.000000 -0.000000
RightUpLeg -1.276285 -14.688765 0.468756
RightLeg -4.419758 -0.000000 0.000000
RightFoot -24.024869 -24.272369 22.374124
RightToeBase 22.138767 -0.000000 -0.000000
445
root 18.605920 35.467416 -21.151268 12.940116 10.418126 -0.544491
Spine -24.803398 -18.406409 -0.515195
Head 14.905161 7.199198 13.675128
LeftShoulder -5.221789 3.595614 -4.497841
LeftArm -107.177588 48.695509 -205.446955
LeftForeArm 72.065199 -0.000000 125.328511
LeftHand 11.855079 -0.000000 19.534026
LeftHandThumb1 -26.253704 0.000000 33.147579
RightShoulder -18.630159 29.754251 -40.001790
RightArm 152.679588 53.886120 117.854817
RightForeArm 5.072080 -0.000000 149.750072
RightHand 5.023254 -0.000000 -23.715306
RightHandThumb1 -24.326973 -0.000000 -32.862282
LeftUpLeg -2.768902 0.150273 2.158411
LeftLeg -7.968300 -0.000000 0.000000
LeftFoot -19.717969 26.262434 -13.957181
LeftToeBase 24.422442 -0.000000 -0.000000
RightUpLeg -1.284652 -14.646529 0.464167
RightLeg -4.418236 -0.000000 0.000000
RightFoot -24.019946 -24.281289 22.371274
RightToeBase 22.131477 -0.000000 -0.000000
446
root 18.607608 35.467347 -21.148758 12.934671 10.402148 -0.556925
Spine -24.794173 -18.347445 -0.513367
Head 14.863410 7.157487 13.651057
LeftShoulder -5.205237 3.688826 -4.454457
LeftArm -107.161590 48.698996 -205.396501
LeftForeArm 72.116459 0.000000 125.302095
LeftHand 11.978903 -0.000000 19.642392
LeftHandThumb1 -26.253704 0.000000 33.147579
RightShoulder -18.644078 29.721040 -39.984041
RightArm 152.831890 53.856898 118.021562
RightForeArm 5.103906 0.000000 149.738640
RightHand 5.018878 -0.000000 -23.736722
RightHandThumb1 -24.326973 -0.000000 -32.862282
LeftUpLeg -2.758577 0.147716 2.168044
LeftLeg -7.965871 -0.000000 0.000000
LeftFoot -19.730993 26.277587 -13.943313
LeftToeBase 24.444101 -0.000000 -0.000000
RightUpLeg -1.281319 -14.629576 0.470936
RightLeg -4.415293 -0.000000 0.000000
RightFoot -24.021634 -24.282915 22.383058
RightToeBase 22.178190 -0.000000 -0.000000
447
root 18.610782 35.467868 -21.147735 12.928325 10.393276 -0.564189
Spine -24.789365 -18.309949 -0.496759
Head 14.841306 7.128132 13.606578
LeftShoulder -5.201154 3.714730 -4.423328
LeftArm -107.166524 48.638950 -205.395594
LeftForeArm 72.220100 -0.000000 125.331688
LeftHand 11.618152 -0.000000 19.038784
LeftHandThumb1 -26.253704 0.000000 33.147579
RightShoulder -18.655709 29.707415 -39.939334
RightArm 152.904100 53.859702 118.063429
RightForeArm 5.143968 -0.000000 149.736253
RightHand 4.999817 -0.000000 -23.760455
RightHandThumb1 -24.326973 -0.000000 -32.862282
LeftUpLeg -2.746599 0.128401 2.170499
LeftLeg -7.971173 -0.000000 0.000000
LeftFoot -19.734932 26.309068 -13.950186
LeftToeBase 24.417101 -0.000000 -0.000000
RightUpLeg -1.277361 -14.601147 0.467867
RightLeg -4.406306 -0.000000 0.000000
RightFoot -24.005324 -24.284261 22.380150
RightToeBase 22.119152 -0.000000 -0.000000
448
root 18.613672 35.467991 -21.145075 12.919178 10.385560 -0.571078
Spine -24.783563 -18.294017 -0.475189
Head 14.813032 7.118773 13.580428
LeftShoulder -5.212565 3.736224 -4.391476
LeftArm -107.174096 48.578826 -205.396389
LeftForeArm 72.318533 -0.000000 125.354930
LeftHand 11.613309 -0.000000 19.664752
LeftHandThumb1 -26.253704 0.000000 33.147579
RightShoulder -18.662433 29.727114 -39.916918
RightArm 152.946617 53.837831 118.109315
RightForeArm 5.151659 -0.000000 149.732236
RightHand 4.984324 -0.000000 -23.762452
RightHandThumb1 -24.326973 -0.000000 -32.862282
LeftUpLeg -2.727538 0.127154 2.171855
LeftLeg -7.980930 -0.000000 0.000000
LeftFoot -19.746003 26.321970 -13.962050
LeftToeBase 24.402985 -0.000000 -0.000000
RightUpLeg -1.269931 -14.586228 0.468599
RightLeg -4.400939 -0.000000 0.000000
RightFoot -24.022900 -24.302423 22.426224
RightToeBase 22.108999 -0.000000 -0.000000
449
root 18.617237 35.467929 -21.143037 12.914301 10.385051 -0.576565
Spine -24.783860 -18.281822 -0.447296
Head 14.791170 7.121084 13.558860
LeftShoulder -5.225065 3.735271 -4.364902
LeftArm -107.174907 48.515732 -205.379230
LeftForeArm 72.413396 -0.000000 125.380249
LeftHand 12.033835 -0.000000 20.221626
LeftHandThumb1 -26.253704 0.000000 33.147579
RightShoulder -18.673952 29.778259 -39.907503
RightArm 152.909130 53.831659 118.070993
RightForeArm 5.148308 0.000000 149.698507
RightHand 4.990866 0.000000 -23.705706
RightHandThumb1 -24.326973 -0.000000 -32.862282
LeftUpLeg -2.716848 0.128609 2.170728
LeftLeg -7.984669 -0.000000 0.000000
LeftFoot -19.743329 26.324572 -13.953746
LeftToeBase 24.404145 -0.000000 -0.000000
RightUpLeg -1.263766 -14.553239 0.462725
RightLeg -4.393263 -0.000000 0.000000
RightFoot -24.019380 -24.320281 22.411626
RightToeBase 22.113524 -0.000000 -0.000000
